<?xml version="1.0" encoding="UTF-8" standalone="no"?>
<!-- Created with Inkscape (http://www.inkscape.org/) -->

<svg
   xmlns:dc="http://purl.org/dc/elements/1.1/"
   xmlns:cc="http://creativecommons.org/ns#"
   xmlns:rdf="http://www.w3.org/1999/02/22-rdf-syntax-ns#"
   xmlns:svg="http://www.w3.org/2000/svg"
   xmlns="http://www.w3.org/2000/svg"
   xmlns:sodipodi="http://sodipodi.sourceforge.net/DTD/sodipodi-0.dtd"
   xmlns:inkscape="http://www.inkscape.org/namespaces/inkscape"
   width="8.9901781cm"
   height="2.8249505cm"
   viewBox="0 0 89.901776 28.249505"
   version="1.1"
   id="svg831"
   inkscape:version="0.92.3 (2405546, 2018-03-11)"
   sodipodi:docname="logo.svg">
  <title
     id="title1455">Logo Universidades Renovadas</title>
  <defs
     id="defs825" />
  <sodipodi:namedview
     id="base"
     pagecolor="#ffffff"
     bordercolor="#666666"
     borderopacity="1.0"
     inkscape:pageopacity="0.0"
     inkscape:pageshadow="2"
     inkscape:zoom="1.979899"
     inkscape:cx="189.08982"
     inkscape:cy="33.544582"
     inkscape:document-units="mm"
     inkscape:current-layer="layer1"
     showgrid="false"
     fit-margin-top="0"
     fit-margin-left="0"
     fit-margin-right="0"
     fit-margin-bottom="0"
     inkscape:window-width="1366"
     inkscape:window-height="681"
     inkscape:window-x="0"
     inkscape:window-y="29"
     inkscape:window-maximized="1"
     units="cm" />
  <metadata
     id="metadata828">
    <rdf:RDF>
      <cc:Work
         rdf:about="">
        <dc:format>image/svg+xml</dc:format>
        <dc:type
           rdf:resource="http://purl.org/dc/dcmitype/StillImage" />
        <dc:title>Logo Universidades Renovadas</dc:title>
        <dc:creator>
          <cc:Agent>
            <dc:title>D. R. Rodrigues</dc:title>
          </cc:Agent>
        </dc:creator>
        <dc:description>A modified and SVG-ed version of the Universidades Renovadas Logo.</dc:description>
      </cc:Work>
    </rdf:RDF>
  </metadata>
  <g
     inkscape:label="Layer 1"
     inkscape:groupmode="layer"
     id="layer1"
     transform="translate(-49.744681,-58.360062)">
    <path
       style="fill:#000000;stroke-width:0.05772258"
       d="m 49.820281,82.219279 c 0,-0.360306 -0.017,-0.856316 -0.0378,-1.10224 l -0.0378,-0.44714 0.609118,0.01993 c 0.675034,0.0221 0.79432,0.07732 0.947144,0.438434 0.06749,0.159475 0.06737,0.216389 -8.41e-4,0.379621 -0.04413,0.105613 -0.148865,0.24202 -0.232749,0.303126 l -0.152517,0.111101 0.289698,0.402391 c 0.159333,0.221312 0.289695,0.419339 0.289695,0.440056 0,0.03323 -0.283634,0.109815 -0.406753,0.109815 -0.0253,0 -0.223355,-0.25037 -0.440134,-0.556378 l -0.394145,-0.556377 -0.01653,0.556377 -0.01652,0.556378 H 50.020209 49.82027 Z m 0.966664,-0.711093 c 0.162846,-0.222707 0.0038,-0.423205 -0.335839,-0.423205 h -0.226767 v 0.250132 c 0,0.137568 0.01948,0.269727 0.04329,0.293686 0.07132,0.07174 0.441536,-0.01424 0.519314,-0.120613 z m 4.784148,0.912108 c -0.0551,-0.65183 -0.04402,-1.809503 0.01711,-1.787473 0.02936,0.01062 0.306224,0.253016 0.615242,0.538743 0.846453,0.782649 0.774434,0.7764 0.774434,0.06717 0,-0.634368 0.01659,-0.673259 0.28713,-0.673259 0.09525,0 0.108177,0.08837 0.145747,0.995712 0.02268,0.547646 0.03196,1.056914 0.02064,1.131717 -0.01853,0.12228 -0.08751,0.07423 -0.683884,-0.476213 -0.364809,-0.336715 -0.683004,-0.612207 -0.707101,-0.612207 -0.02409,0 -0.04383,0.269894 -0.04383,0.599771 v 0.599774 l -0.194611,0.02269 -0.194614,0.02269 z m -2.793803,-0.685936 0.01571,-1.082297 0.613293,-0.01631 c 0.596153,-0.01587 0.614282,-0.0126 0.648592,0.115447 0.06911,0.257959 0.05267,0.270365 -0.381616,0.287961 l -0.418488,0.01697 -0.01792,0.216463 -0.01792,0.216457 h 0.349819 0.34982 v 0.202031 0.202031 h -0.346335 -0.346334 v 0.259749 0.259754 h 0.49064 c 0.269853,0 0.490643,0.02427 0.490643,0.05398 0,0.02966 -0.02533,0.120594 -0.05628,0.202031 -0.05593,0.14714 -0.06046,0.148064 -0.722805,0.148064 h -0.666513 z m 6.826967,1.016176 c -0.639882,-0.236689 -0.944197,-0.927481 -0.670156,-1.521247 0.340823,-0.738468 1.37249,-0.908906 1.990454,-0.328844 0.500992,0.47027 0.417546,1.287779 -0.173878,1.703451 -0.188059,0.132168 -0.315016,0.171786 -0.605597,0.188962 -0.20221,0.01196 -0.44558,-0.007 -0.540823,-0.04233 z m 0.742556,-0.417523 c 0.576502,-0.240879 0.596635,-0.987336 0.03447,-1.278048 -0.637945,-0.329892 -1.352859,0.384888 -0.986255,0.986071 0.116431,0.190931 0.417756,0.368137 0.629573,0.370248 0.07245,4.94e-4 0.217448,-0.03452 0.322215,-0.07827 z m 2.903776,0.13731 c -0.07795,-0.174609 -0.299989,-0.666344 -0.49343,-1.092742 -0.193436,-0.426399 -0.343107,-0.783871 -0.332601,-0.794378 0.01052,-0.01051 0.115974,-0.02532 0.234362,-0.03283 l 0.215252,-0.01373 0.228797,0.605401 c 0.125838,0.332972 0.249184,0.625789 0.274103,0.650706 0.02492,0.02492 0.163334,-0.247511 0.307588,-0.6054 0.224063,-0.555886 0.282328,-0.652887 0.399845,-0.665664 0.336419,-0.03659 0.326658,0.0357 -0.147574,1.092312 -0.247014,0.55036 -0.470604,1.039622 -0.496868,1.087239 -0.03551,0.06439 -0.08408,0.0051 -0.189474,-0.23089 z m 1.95194,0.229565 c -0.02008,-0.03248 0.0526,-0.220799 0.161531,-0.418489 0.108912,-0.197689 0.362235,-0.677309 0.562934,-1.065816 0.200703,-0.388506 0.369749,-0.70021 0.375659,-0.692673 0.0059,0.0075 0.237866,0.416322 0.515459,0.90841 0.277592,0.492083 0.551803,0.977175 0.609363,1.077977 l 0.104656,0.183287 -0.230285,0.03891 c -0.126661,0.02141 -0.238334,0.02982 -0.248163,0.01875 -0.0099,-0.01107 -0.07355,-0.130556 -0.141592,-0.265484 l -0.123715,-0.245323 h -0.461357 -0.461356 l -0.126199,0.259755 c -0.111004,0.228481 -0.148722,0.259748 -0.313317,0.259748 -0.102918,0 -0.203544,-0.02655 -0.223613,-0.05904 z m 1.2981,-1.012706 c -0.03099,-0.0815 -0.08571,-0.203064 -0.121601,-0.270126 -0.06297,-0.117663 -0.06895,-0.114998 -0.170701,0.07604 -0.157364,0.295461 -0.141062,0.342277 0.119182,0.342277 0.222513,0 0.227754,-0.0044 0.17312,-0.148188 z m 2.252656,-0.08269 v -1.096732 h 0.434772 c 0.663297,0 1.029156,0.194984 1.245532,0.66381 0.135294,0.293147 0.135294,0.572693 0,0.865836 -0.216376,0.46883 -0.582235,0.663811 -1.245532,0.663811 h -0.434772 z m 1.032262,0.598541 c 0.146193,-0.102404 0.295359,-0.406627 0.295359,-0.602397 0,-0.353222 -0.348756,-0.688815 -0.715828,-0.688815 h -0.15001 v 0.692671 0.692669 h 0.218047 c 0.119924,0 0.278518,-0.04238 0.352432,-0.09413 z m 1.911589,0.464821 c 0,-0.07303 1.108803,-2.160093 1.147598,-2.160093 0.02285,0 0.09761,0.110393 0.166099,0.245322 0.0685,0.134927 0.330906,0.608973 0.583154,1.053433 0.252242,0.444467 0.43846,0.829491 0.413816,0.855618 -0.02464,0.0261 -0.132481,0.03911 -0.239634,0.02888 -0.160954,-0.01537 -0.215556,-0.05878 -0.314068,-0.249526 l -0.119244,-0.230891 -0.459984,-0.01657 -0.45999,-0.01657 -0.127232,0.261885 c -0.119543,0.246055 -0.141236,0.261885 -0.358875,0.261885 -0.127401,0 -0.23164,-0.01502 -0.23164,-0.03338 z m 1.385342,-0.886958 c 0,-0.07015 -0.204717,-0.522322 -0.236568,-0.522524 -0.05519,-4.9e-4 -0.225442,0.472217 -0.190496,0.528763 0.03306,0.0535 0.427064,0.04777 0.427064,-0.0062 z m 2.321417,0.763738 -0.241484,-0.156578 0.154102,-0.16085 0.154102,-0.160846 0.122838,0.115398 c 0.160435,0.15072 0.442243,0.149059 0.580238,-0.0035 0.152203,-0.168178 0.05999,-0.283046 -0.354826,-0.442014 -0.429297,-0.164519 -0.600654,-0.350989 -0.600654,-0.65364 0,-0.167781 0.04281,-0.274676 0.164588,-0.410969 0.143574,-0.160687 0.209486,-0.18745 0.516274,-0.209644 0.290267,-0.02096 0.387589,-0.0035 0.557269,0.10162 l 0.205582,0.127062 -0.130203,0.162417 c -0.119175,0.148668 -0.141018,0.155579 -0.258044,0.08168 -0.156771,-0.09901 -0.430883,-0.105011 -0.524418,-0.01146 -0.181151,0.181152 0.0019,0.383405 0.431596,0.475807 0.100859,0.0217 0.250223,0.106309 0.331905,0.187994 0.204112,0.204108 0.214515,0.68748 0.01864,0.865891 -0.332899,0.303214 -0.748999,0.337013 -1.127505,0.09158 z M 50.119852,79.755884 c -0.307515,-0.187486 -0.36276,-0.402816 -0.344435,-1.342481 l 0.01601,-0.820636 0.178874,-0.01743 0.178875,-0.01743 0.03758,0.444635 c 0.02068,0.24455 0.03758,0.631505 0.03758,0.859897 0,0.45978 0.08613,0.606327 0.356364,0.606327 0.287282,0 0.33154,-0.13208 0.349082,-1.041722 l 0.01609,-0.834261 0.216461,-0.01791 0.216458,-0.0179 -2.4e-4,0.883753 c -1.73e-4,0.784577 -0.01329,0.905195 -0.116708,1.074827 -0.210889,0.345897 -0.774391,0.464499 -1.142015,0.240367 z m 2.067055,-1.044287 v -1.174674 l 0.663809,0.661929 0.66381,0.661926 v -0.64844 c 0,-0.578774 0.01084,-0.64852 0.101019,-0.649224 0.05555,-4.87e-4 0.159458,-0.01644 0.230889,-0.0356 l 0.129876,-0.03481 v 1.166992 1.166992 l -0.67824,-0.63596 -0.678241,-0.635965 -0.01631,0.630154 c -0.01157,0.447116 -0.03674,0.630388 -0.08658,0.630947 -0.03865,4.84e-4 -0.128706,0.01646 -0.200139,0.0356 l -0.129875,0.03481 z m 2.635279,0.803477 c -0.02022,-0.168348 -0.03698,-0.672978 -0.03725,-1.121409 l -4.96e-4,-0.815331 0.180383,-0.03607 c 0.09922,-0.01984 0.20366,-0.03607 0.232111,-0.03607 0.02927,0 0.04494,0.494929 0.03607,1.140022 l -0.01565,1.140019 -0.179199,0.01746 c -0.176228,0.01722 -0.179808,0.01236 -0.215958,-0.28861 z m 1.875321,0.121809 c -0.02959,-0.0766 -0.237813,-0.566656 -0.462752,-1.089015 -0.428369,-0.994768 -0.433473,-1.038916 -0.120312,-1.040804 0.134356,-9.41e-4 0.165532,0.05137 0.370257,0.619634 0.12295,0.341284 0.242376,0.642318 0.265387,0.668964 0.0389,0.04503 0.516405,-1.089918 0.516405,-1.227411 0,-0.03414 0.103906,-0.06208 0.230891,-0.06208 0.12699,0 0.230891,0.0081 0.230891,0.01791 0,0.07827 -0.867546,2.13458 -0.927908,2.199374 -0.02844,0.03051 -0.0717,-0.0059 -0.102853,-0.08658 z m 1.607992,-0.970074 c 0,-0.941196 0.01249,-1.095353 0.09131,-1.125592 0.05022,-0.01926 0.322958,-0.03504 0.606088,-0.03504 0.372924,0 0.514999,0.01988 0.51557,0.07216 4.62e-4,0.03969 0.01614,0.129403 0.03489,0.199377 0.03263,0.121682 0.0156,0.127971 -0.390415,0.144309 l -0.424529,0.01708 v 0.202031 0.202027 l 0.331906,0.0173 0.331906,0.01733 v 0.199149 0.199148 h -0.317477 -0.317473 v 0.288617 0.288613 h 0.46178 c 0.253979,0 0.46178,0.0092 0.46178,0.02022 0,0.01113 -0.02852,0.102048 -0.06337,0.202025 l -0.06337,0.181784 h -0.629317 -0.629302 z m 2.058771,1.052069 c -0.02116,-0.02116 -0.03849,-0.527681 -0.03849,-1.125588 v -1.087109 l 0.476213,1.14e-4 c 0.738559,1.16e-4 1.021763,0.197835 1.023723,0.714628 6.43e-4,0.181234 -0.03719,0.259947 -0.198088,0.411699 l -0.198939,0.187624 0.291807,0.414183 c 0.160495,0.2278 0.282487,0.423354 0.271094,0.434562 -0.0114,0.01122 -0.116061,0.03817 -0.232594,0.05995 l -0.211878,0.03956 -0.379777,-0.567924 -0.37978,-0.567917 v 0.562351 0.562355 h -0.192407 c -0.105825,0 -0.209726,-0.0173 -0.23089,-0.03846 z m 0.797165,-1.241309 c 0.33297,-0.151715 0.200534,-0.567329 -0.180784,-0.567329 H 60.78757 v 0.317471 c 0,0.349219 0.06316,0.391426 0.373865,0.249858 z m 1.539785,1.181958 c -0.240883,-0.118685 -0.282926,-0.220501 -0.151166,-0.366099 0.122722,-0.135604 0.21843,-0.143704 0.315529,-0.0267 0.08599,0.103615 0.410595,0.114686 0.507956,0.01731 0.19392,-0.193912 0.01725,-0.428289 -0.397564,-0.527461 -0.39808,-0.09516 -0.591609,-0.466505 -0.456495,-0.875901 0.128426,-0.389133 0.623662,-0.545719 1.063139,-0.33615 0.259941,0.123959 0.287571,0.208235 0.119909,0.365744 -0.127559,0.11984 -0.144211,0.12201 -0.268424,0.035 -0.252492,-0.176854 -0.5108,-0.08595 -0.5108,0.179777 0,0.08562 0.04689,0.152116 0.129878,0.184176 0.812087,0.313748 0.985117,0.554606 0.769371,1.070959 -0.14773,0.35357 -0.694323,0.489738 -1.121333,0.279347 z m 1.953762,-1.050443 v -1.160626 h 0.202029 0.202031 v 1.125591 c 0,1.071111 -0.0055,1.125591 -0.110724,1.125591 -0.0609,0 -0.151813,0.01578 -0.20203,0.03505 -0.0814,0.03124 -0.09131,-0.09098 -0.09131,-1.125591 z m 1.249793,0.700928 c -0.02025,-0.214292 -0.03698,-0.720812 -0.0372,-1.12559 l -4.87e-4,-0.735964 0.360766,4.87e-4 c 0.19842,1.73e-4 0.458882,0.02758 0.578801,0.06088 0.496437,0.137863 0.832059,0.657192 0.779335,1.205907 -0.05809,0.604473 -0.537214,0.984055 -1.242155,0.984055 H 65.9415 Z m 1.036023,-0.210688 c 0.175565,-0.175565 0.196258,-0.22969 0.196258,-0.5134 0,-0.270303 -0.02474,-0.343617 -0.167467,-0.496413 -0.09211,-0.0986 -0.215487,-0.179625 -0.274184,-0.180063 -0.0587,-4.87e-4 -0.165162,-0.01644 -0.236593,-0.0356 -0.129661,-0.03475 -0.129875,-0.03361 -0.129875,0.693463 v 0.728262 h 0.207803 c 0.159359,0 0.253553,-0.04575 0.404058,-0.196255 z m 1.129439,0.548724 c 0.08654,-0.232067 1.066899,-2.196305 1.096886,-2.19774 0.046,-0.0021 1.144673,2.097032 1.144673,2.187105 0,0.03422 -0.09125,0.06223 -0.202779,0.06223 -0.183153,0 -0.214994,-0.02511 -0.328978,-0.259754 l -0.126196,-0.259753 h -0.453526 -0.453526 l -0.114899,0.259748 c -0.108807,0.245975 -0.127255,0.259754 -0.347898,0.259754 -0.128151,0 -0.224339,-0.02323 -0.213757,-0.0516 z m 1.271884,-1.09129 c -0.05401,-0.120626 -0.1234,-0.226958 -0.15421,-0.236293 -0.0308,-0.0094 -0.10117,0.08935 -0.156368,0.219319 l -0.100355,0.236294 h 0.254563 0.254562 z m 6.183897,1.023711 c -0.301479,-0.149226 -0.336553,-0.237757 -0.159935,-0.40368 0.126052,-0.118423 0.14935,-0.12265 0.241149,-0.04381 0.153176,0.131594 0.289806,0.164979 0.440585,0.107655 0.342579,-0.130244 0.202252,-0.394903 -0.319135,-0.601887 -0.398543,-0.158214 -0.55129,-0.420288 -0.454493,-0.779774 0.116303,-0.431924 0.54958,-0.619027 1.018647,-0.439886 0.31327,0.119638 0.369121,0.227491 0.203529,0.393076 -0.120707,0.120708 -0.126839,0.121089 -0.300188,0.01868 -0.224532,-0.132635 -0.443877,-0.08545 -0.49188,0.105825 -0.04914,0.195805 -0.01586,0.228715 0.375524,0.371424 0.434734,0.158509 0.581454,0.334094 0.581454,0.695828 0,0.219385 -0.02976,0.298432 -0.15874,0.421464 -0.30711,0.29298 -0.602971,0.33996 -0.976517,0.155057 z m -4.636997,-1.035284 v -1.096727 h 0.464648 c 0.506738,0 0.683136,0.0621 0.928071,0.32675 0.233485,0.252276 0.300499,0.424121 0.300176,0.769728 -4.87e-4,0.352436 -0.09864,0.585372 -0.34569,0.819125 -0.231218,0.218762 -0.426452,0.277856 -0.918045,0.277856 h -0.42916 z m 1.000973,0.574132 c 0.212974,-0.167529 0.306446,-0.509882 0.218948,-0.801924 -0.08834,-0.29484 -0.305146,-0.464876 -0.592756,-0.464876 h -0.223105 v 0.692668 0.692669 h 0.223105 c 0.137645,0 0.280832,-0.0454 0.373808,-0.118537 z m 1.423767,-0.588559 4.9e-4,-1.111162 0.60569,-0.0042 c 0.54579,-0.0038 0.60664,0.0062 0.615307,0.10102 0.02679,0.293092 0.02288,0.299673 -0.182785,0.306253 -0.661487,0.02115 -0.634949,0.01148 -0.634949,0.231894 v 0.202027 h 0.346336 0.346335 v 0.19915 0.199148 l -0.331903,0.01733 c -0.298554,0.01556 -0.333839,0.03095 -0.35112,0.153059 -0.01052,0.07466 -0.0039,0.196998 0.01494,0.271858 0.03176,0.126512 0.06593,0.137291 0.484827,0.152865 l 0.450665,0.01675 -0.0488,0.1876 -0.04877,0.187598 h -0.633299 -0.633294 l 4.88e-4,-1.111163 z M 63.112898,75.969699 c 0.02074,-0.176366 1.14e-4,-0.397393 -0.05519,-0.590821 -0.06324,-0.221226 -0.07876,-0.442658 -0.05463,-0.779254 0.145539,-2.029084 0.103284,-2.665893 -0.199398,-3.004645 -0.127402,-0.142589 -0.202574,-0.175906 -0.396884,-0.175906 -0.131843,0 -0.259394,0.03184 -0.283448,0.07077 -0.02405,0.03891 -0.0052,0.259788 0.04182,0.490816 0.08333,0.409109 0.08159,0.434305 -0.06647,0.966932 -0.08362,0.300783 -0.162173,0.624802 -0.174564,0.720046 l -0.02253,0.173165 -0.0087,-0.192409 c -0.0047,-0.105826 0.04577,-0.404542 0.112248,-0.663812 0.118606,-0.462463 0.119846,-0.544717 0.01901,-1.257177 -0.03344,-0.236175 -0.02245,-0.276956 0.09722,-0.360764 0.150529,-0.105438 0.409319,-0.123298 0.566617,-0.03911 0.0934,0.04998 0.106856,0.01764 0.138127,-0.331907 0.01905,-0.213005 0.08717,-0.843183 0.151353,-1.400401 0.191519,-1.662651 0.09107,-2.645219 -0.275979,-2.699571 -0.06852,-0.0102 -0.124566,-0.0064 -0.124566,0.0083 0,0.05576 -0.181973,0.954026 -0.288556,1.424393 -0.06115,0.269855 -0.141643,0.67247 -0.17888,0.8947 -0.03723,0.222235 -0.181073,0.710488 -0.319636,1.085016 -0.138563,0.374527 -0.251931,0.745768 -0.251931,0.82498 0,0.313554 -0.191212,1.038042 -0.492099,1.864533 -0.356848,0.980211 -0.378436,1.189026 -0.230182,2.226388 0.0452,0.316246 0.07171,0.585459 0.05892,0.598247 -0.05557,0.05557 -1.364497,-0.633446 -1.732129,-0.911803 -2.255037,-1.707442 -3.167674,-4.215189 -2.558191,-7.029411 0.0361,-0.166671 0.08713,-0.303041 0.113392,-0.303041 0.02628,0 0.08373,0.08442 0.12771,0.187597 0.06039,0.141695 0.148852,0.214766 0.361541,0.298629 0.154878,0.06107 0.422096,0.23826 0.593822,0.393767 0.171726,0.155509 0.414394,0.323622 0.539268,0.373587 0.217187,0.0869 0.225581,0.09987 0.193436,0.298898 -0.107017,0.662577 -0.107397,0.696244 -0.0095,0.845686 0.167373,0.255447 0.282868,0.390294 0.565304,0.660026 l 0.27314,0.260858 0.03196,0.519502 c 0.0479,0.778723 0.146722,1.364712 0.262827,1.558509 0.133005,0.222005 0.502642,0.580384 0.549888,0.533133 0.01991,-0.0199 0.0072,-0.202085 -0.02799,-0.404839 -0.09759,-0.560383 -0.08619,-0.671154 0.07539,-0.732583 0.430228,-0.163573 1.130315,-0.908416 1.130315,-1.202578 0,-0.09085 0.103904,-0.456437 0.230889,-0.812427 0.126989,-0.355994 0.230889,-0.668975 0.230889,-0.695517 0,-0.02653 -0.123051,-0.07924 -0.27345,-0.117111 -0.200358,-0.05044 -0.361219,-0.15257 -0.601803,-0.382047 -0.180591,-0.172256 -0.355242,-0.313194 -0.38811,-0.313194 -0.03287,0 -0.202707,-0.116432 -0.377416,-0.258732 -0.205837,-0.167658 -0.350579,-0.2461 -0.411185,-0.222844 -0.05144,0.01974 -0.2329,0.0024 -0.40324,-0.03841 -0.276128,-0.06624 -0.326425,-0.06335 -0.463844,0.02669 -0.08478,0.05554 -0.167023,0.150295 -0.182783,0.210557 -0.03973,0.151927 -0.168749,0.136856 -0.320293,-0.03741 -0.0703,-0.08085 -0.22522,-0.245688 -0.344274,-0.366331 -0.140641,-0.14252 -0.216458,-0.272998 -0.216458,-0.372522 0,-0.181002 0.0031,-0.180328 -0.258372,-0.05563 -0.260273,0.124118 -0.303582,0.07711 -0.328146,-0.356206 l -0.01957,-0.345243 0.202028,-0.0337 c 0.111117,-0.01854 0.258591,-0.06439 0.327723,-0.101898 0.174746,-0.09482 0.293634,-0.03293 0.422671,0.219995 0.093,0.182307 0.211683,0.288616 0.322195,0.288616 0.05768,0 0.01648,-0.251431 -0.06793,-0.414672 -0.08613,-0.166582 -0.08493,-0.187767 0.01895,-0.329038 0.06107,-0.08305 0.167437,-0.176631 0.236378,-0.20797 0.06895,-0.03134 0.125348,-0.10381 0.125348,-0.161037 0,-0.158118 0.206087,-0.523194 0.341537,-0.60502 0.06613,-0.03996 0.120244,-0.102843 0.120244,-0.13976 0,-0.160427 0.17862,-0.266523 0.398956,-0.23697 0.261536,0.03508 0.34903,-0.08875 0.174378,-0.246823 -0.06136,-0.05552 -0.111553,-0.176178 -0.111553,-0.268119 0,-0.136192 0.03709,-0.182662 0.200174,-0.250804 0.110097,-0.04601 0.252047,-0.08364 0.315444,-0.08364 0.123543,0 0.234775,-0.156272 0.234775,-0.32984 0,-0.0586 -0.09091,-0.192289 -0.202028,-0.297098 -0.111116,-0.104806 -0.202029,-0.213754 -0.202029,-0.242107 0,-0.112444 0.675574,-0.382617 1.43397,-0.573466 0.453879,-0.114219 1.597293,-0.234765 1.91394,-0.201778 0.657691,0.06852 0.906747,0.11093 1.384539,0.235803 0.620115,0.162067 0.866638,0.336775 0.866638,0.614173 0,0.130005 -0.03527,0.177664 -0.16489,0.222853 -0.09067,0.03161 -0.200166,0.12339 -0.24328,0.203949 -0.04312,0.08056 -0.149089,0.183033 -0.235504,0.227719 -0.217267,0.11235 -0.233427,0.157195 -0.130791,0.362934 0.109457,0.219412 0.08118,0.272799 -0.169392,0.319808 -0.321374,0.06029 -0.402717,0.199492 -0.3553,0.608029 0.03658,0.315242 0.02518,0.376036 -0.117057,0.623729 -0.08668,0.150944 -0.218276,0.339951 -0.29244,0.42002 l -0.134847,0.145577 0.108156,0.527898 c 0.05948,0.290343 0.146913,0.666411 0.194283,0.835707 0.04737,0.169295 0.103433,0.4077 0.124578,0.529792 l 0.03845,0.221978 0.241669,-0.03104 c 0.775135,-0.09956 0.895724,-0.10473 1.010499,-0.0433 0.06804,0.03641 0.108035,0.100343 0.09084,0.145171 -0.01691,0.04407 0.02591,0.191129 0.09512,0.326818 0.136209,0.266991 0.154189,0.477299 0.08454,0.98891 -0.03736,0.274411 -0.02268,0.390627 0.08738,0.692673 0.07273,0.199617 0.153686,0.387103 0.179877,0.416634 0.06766,0.07631 0.613338,-0.191132 0.753452,-0.369255 0.06325,-0.08042 0.138637,-0.146217 0.167508,-0.146217 0.02888,0 0.0504,-0.02085 0.04784,-0.04634 -0.0025,-0.02548 0.03231,-0.103413 0.07745,-0.173168 0.04516,-0.06976 0.09969,-0.198264 0.12119,-0.28557 0.02151,-0.08731 0.07568,-0.158738 0.120386,-0.158738 0.157674,0 0.320578,-0.290175 0.320318,-0.570577 -2.17e-4,-0.228944 0.04584,-0.334351 0.327706,-0.74973 0.382854,-0.564241 0.483956,-0.937312 0.30702,-1.1329 -0.14472,-0.159977 -0.461359,-0.7991 -0.461095,-0.930702 2.17e-4,-0.13615 0.218585,0.202773 0.320644,0.49778 0.04201,0.121434 0.13427,0.234062 0.231259,0.282325 0.150999,0.07513 0.169979,0.07028 0.295268,-0.07536 0.07363,-0.08562 0.133898,-0.214824 0.133898,-0.287134 0,-0.175249 0.0506,-0.216302 0.180756,-0.146645 0.08831,0.04726 0.107857,0.125581 0.107857,0.432037 0,0.300324 0.02867,0.419725 0.145029,0.604058 0.159006,0.251881 0.207894,0.272628 0.337363,0.143157 0.04762,-0.04762 0.09753,-0.08657 0.110921,-0.08657 0.0134,0 0.05734,0.305208 0.09769,0.67824 0.270956,2.505159 -0.957718,4.952826 -3.17308,6.321168 -0.432497,0.267136 -1.092537,0.585684 -1.131928,0.546293 -0.01148,-0.01148 0.01909,-0.402635 0.0679,-0.869263 l 0.08873,-0.848416 -0.20997,-0.590677 c -0.115486,-0.324873 -0.297884,-0.83744 -0.405332,-1.139045 -0.10745,-0.3016 -0.221307,-0.730189 -0.253018,-0.95242 -0.03172,-0.222232 -0.16166,-0.670323 -0.288769,-0.995759 -0.24979,-0.639502 -0.375856,-1.089859 -0.432226,-1.544033 -0.01969,-0.158738 -0.08607,-0.48343 -0.147478,-0.721532 -0.06141,-0.238108 -0.142176,-0.59498 -0.179471,-0.793054 -0.103906,-0.551793 -0.268675,-0.607559 -0.479908,-0.162424 -0.142074,0.299407 -0.12012,1.40754 0.05439,2.744878 0.204689,1.568644 0.196854,1.527073 0.273346,1.450582 0.102371,-0.10237 0.476157,-0.07738 0.623176,0.04166 l 0.132032,0.106908 -0.09898,0.4581 c -0.09675,0.447762 -0.09626,0.46651 0.02174,0.83108 0.06963,0.215147 0.129842,0.580599 0.142298,0.863619 l 0.0216,0.490645 -0.04297,-0.432923 c -0.02364,-0.238102 -0.103358,-0.595864 -0.177181,-0.795021 -0.114865,-0.309903 -0.127971,-0.41808 -0.09089,-0.750396 0.06808,-0.610234 0.06563,-0.658475 -0.03679,-0.724163 -0.163517,-0.104871 -0.516161,0.01988 -0.659604,0.233332 -0.187737,0.279379 -0.210398,0.586522 -0.171396,2.322786 0.03708,1.65003 0.0044,2.195622 -0.134305,2.2417 -0.06438,0.0214 -0.07388,-0.02972 -0.04736,-0.25503 z m -1.219486,-1.926872 c 0,-0.07937 0.01311,-0.11184 0.02912,-0.07216 0.01602,0.03968 0.01602,0.104623 0,0.144307 -0.01602,0.03968 -0.02912,0.0071 -0.02912,-0.07216 z m 9.68659,-7.379711 c -0.886846,-0.654373 -1.324224,-1.505672 -1.324224,-2.577434 0,-0.485385 0.09177,-0.895727 0.400728,-1.791721 0.283368,-0.821801 0.311638,-1.255734 0.09798,-1.504117 -0.110948,-0.128989 -0.194402,-0.161041 -0.47621,-0.182903 -0.375404,-0.02912 -0.379634,0.03901 -0.0097,0.157206 0.153866,0.04916 0.227009,0.111113 0.252871,0.214151 0.06723,0.267908 -0.02238,0.794881 -0.217737,1.280181 l -0.193897,0.481701 -1.356482,0.484346 c -0.746064,0.266388 -1.388442,0.484707 -1.427514,0.485151 -0.03907,4.39e-4 -0.2144,-0.0909 -0.389626,-0.202994 L 66.617559,63.30288 V 62.487602 61.67232 L 66.39,61.455847 c -0.501921,-0.477466 -1.826601,-0.812967 -3.206934,-0.81222 -1.32597,7.42e-4 -2.46091,0.238883 -3.14588,0.660155 -0.44932,0.276341 -0.461781,0.309534 -0.461781,1.230046 v 0.826774 l -0.318594,0.203805 c -0.175229,0.11209 -0.344869,0.203802 -0.376979,0.203802 -0.07376,0 -1.404853,-0.442096 -3.804215,-1.263499 -1.030377,-0.352741 -1.887556,-0.642766 -1.904845,-0.6445 -0.04323,-0.0044 1.067514,-0.404162 4.874984,-1.754795 0.857181,-0.304071 1.727349,-0.615799 1.933707,-0.69273 0.719162,-0.268107 2.858152,-1.023698 2.977725,-1.051873 0.102961,-0.02425 1.82915,0.538435 5.696146,1.856818 l 0.794739,0.270951 0.478805,-0.06373 c 0.704396,-0.09374 1.00007,-0.01903 1.195915,0.302162 0.16277,0.266947 0.142342,0.456478 -0.148477,1.377476 -0.683116,2.163358 -0.384419,3.470285 0.946705,4.142233 0.445936,0.22511 0.566077,0.417515 0.378088,0.605509 -0.149282,0.149283 -0.322037,0.103851 -0.7191,-0.189129 z M 59.959484,62.833173 c -0.07023,-0.584782 -0.04628,-0.961288 0.06847,-1.076026 0.168805,-0.168804 0.908981,-0.449255 1.567738,-0.594016 0.762593,-0.167575 2.251448,-0.183479 2.926436,-0.03126 0.536576,0.121004 1.185359,0.348406 1.436055,0.503345 l 0.197592,0.122119 v 0.659101 c 0,0.362506 -0.0085,0.659102 -0.0189,0.659102 -0.01041,0 -0.176798,-0.06415 -0.369775,-0.14257 -0.906862,-0.368492 -1.884598,-0.522477 -3.016948,-0.475146 -0.995224,0.0416 -1.598612,0.188319 -2.690139,0.654139 -0.03964,0.01691 -0.07766,-0.08854 -0.100515,-0.278788 z m 11.411958,-0.724488 c 0.04472,-0.08731 0.114742,-0.314588 0.155585,-0.505074 0.04085,-0.190483 0.08091,-0.355232 0.08905,-0.366104 0.0082,-0.01086 0.295943,0.07635 0.639582,0.193824 0.343637,0.117481 0.662625,0.225027 0.708861,0.23899 0.07333,0.02216 -1.49,0.5971 -1.623564,0.5971 -0.02795,0 -0.01426,-0.07143 0.03048,-0.158736 z"
       id="path844"
       inkscape:connector-curvature="0" />
    <text
       xml:space="preserve"
       style="font-style:normal;font-variant:normal;font-weight:normal;font-stretch:normal;font-size:2.57878923px;line-height:1.25;font-family:'DejaVu Sans';-inkscape-font-specification:'DejaVu Sans';letter-spacing:0px;word-spacing:0px;fill:#000000;fill-opacity:1;stroke:none;stroke-width:0.06446973"
       x="51.311798"
       y="86.55114"
       id="text848"><tspan
         sodipodi:role="line"
         id="tspan846"
         x="51.311798"
         y="86.55114"
         style="font-style:normal;font-variant:normal;font-weight:normal;font-stretch:normal;font-size:4.12606287px;font-family:'DejaVu Sans';-inkscape-font-specification:'DejaVu Sans';stroke-width:0.06446973">GOU FAFAR</tspan></text>
    <g
       id="g899"
       transform="matrix(0.21817721,0,0,0.21817721,76.135072,65.797679)">
      <path
         id="path881"
         d="M 24.7,28.4 C 31.9,26.3 75.9,20.2 75.9,4.8 76.1,5.3 76.5,6.1 76.8,7.2 77.6,21.2 62,33.6 41,32.6 5.8,30.8 12.6,54.6 25.9,54.1 13.5,57.3 -0.6,35.9 24.7,28.4 Z m -0.6,23 c 0.5,1 1.1,1.9 1.9,2.7 -0.9,-0.9 -1.5,-1.9 -1.9,-2.7 z"
         class="st0"
         inkscape:connector-curvature="0"
         style="clip-rule:evenodd;fill:#ffca05;fill-rule:evenodd" />
      <path
         id="path883"
         d="M 76.8,7.1 C 77.5,8 90.4,40.5 37.7,41.7 25.8,42.2 19.7,47.2 25.9,54.1 12.6,54.6 5.8,30.8 41,32.6 62,33.6 77.6,21.2 76.8,7.1 Z"
         class="st1"
         inkscape:connector-curvature="0"
         style="clip-rule:evenodd;fill:#007236;fill-rule:evenodd" />
      <path
         id="path885"
         d="m 55.8,17 c 1.9,0.9 3.4,2.8 3.6,4.9 0.1,0.6 0,1.2 -0.1,1.8 -0.1,0.6 -0.3,1.1 -0.6,1.6 -0.5,1 -1.4,1.9 -2.3,2.4 -0.8,0.5 -1.7,0.8 -2.7,0.9 0.3,0.6 0.8,0.9 1.3,1.3 1,0.7 2,1.3 2.9,2.1 0.5,0.3 0.9,0.7 1.3,1.1 2.2,2.1 1.9,3.3 1.3,6.4 -0.5,2.1 -0.8,4.1 -1.6,6.1 -0.6,1.5 -1.3,2.9 -2.5,4.6 -0.3,0.4 -0.6,0.6 -0.9,0.6 -1,0.2 -1.5,0 -1.9,-1.2 -0.3,-0.9 -0.6,-1.7 -0.8,-2.6 -0.4,-1.7 -0.5,-3.2 -0.3,-5 0.1,-1.6 0.5,-3.1 1,-4.6 -1.3,-0.5 -1.8,-0.9 -2.7,-1.9 h -0.2 c -0.9,1.2 -2.3,1.7 -3.7,2 v 18.8 c 0,0.1 -0.1,0.2 -0.2,0.2 h -3.1 c -0.1,0 -0.2,-0.1 -0.2,-0.2 v -9.4 c -1.1,-0.7 -1.9,-1.9 -2.6,-3 -0.8,-1.2 -0.8,-1 -2.1,-1.4 -4.3,-1.3 -2.9,-3.2 -6.4,-6.3 -1,-0.9 -2,-1.6 -3.4,-2.2 -0.4,-0.2 -0.5,-0.6 -0.4,-0.9 0.1,-0.3 0.5,-0.5 1,-0.6 0.9,-0.2 2.2,-0.3 2.7,-0.3 H 43.4 V 29.4 C 41.4,28.2 40,25.8 39.8,24.1 38.5,24.2 37.1,23.9 36.3,22.4 33.8,23.9 27.4,22.9 25.6,21.6 25.2,21.3 25,21 25,20.5 v -0.7 c 0,-0.6 0.1,-0.7 0.7,-0.9 0.6,-0.1 1.2,-0.2 1.8,-0.4 3.1,-0.8 7.1,-2.4 9.9,-4 1.6,-0.9 3.1,-0.5 4.5,0.5 0.7,0.4 1.2,0.9 1.8,1.4 l 3.3,3.8 c 0.2,-0.6 0.5,-1.2 0.9,-1.6 0.5,-0.6 1,-1 1.6,-1.4 1.8,-1.1 4.3,-1.2 6.3,-0.2 z"
         class="st2"
         inkscape:connector-curvature="0"
         style="clip-rule:evenodd;fill:#004159;fill-rule:evenodd" />
      <path
         id="path887"
         d="M 58.1,32.6 H 46.6 c -0.1,0 -0.2,-0.1 -0.2,-0.2 V 20.3 l -1.2,-1.4 v 14.8 h 14 C 58.9,33.3 58.5,32.9 58.1,32.6 Z M 44.8,18.4 43.6,17 v 15.4 c 0,0.1 -0.1,0.2 -0.2,0.2 -3.9,0 -7.9,0 -11.8,0 -0.6,0 -1.2,0 -1.8,0.1 -0.6,0.1 -0.5,0.2 0,0.4 0.3,0.2 0.6,0.3 0.9,0.5 h 14 V 18.4 Z M 31.4,34 c 0.5,0.3 1,0.7 1.5,1.1 h 10.6 c 0.1,0 0.2,0.1 0.2,0.2 v 20.8 h 1.2 V 34 Z m 13.8,22.2 h 1.2 V 35.3 c 0,-0.1 0.1,-0.2 0.2,-0.2 H 60.4 C 60.2,34.7 60,34.3 59.7,34 H 45.2 Z"
         class="st3"
         inkscape:connector-curvature="0"
         style="clip-rule:evenodd;fill:#b7cfdb;fill-rule:evenodd" />
      <path
         id="path889"
         d="m 52.7,35.5 c 0.5,0.4 1,0.8 2,1.1 0.1,0 0.1,0.1 0.1,0.2 v 0 c -0.8,2.3 -1.2,4.5 -1.1,6.7 0.1,2.2 0.5,4.4 1.5,6.6 0.3,0.6 0.7,0.1 0.9,-0.3 1.1,-1.6 1.9,-3 2.4,-4.4 0.8,-2 1.1,-4 1.6,-6.1 0.4,-1.7 0.6,-2.8 0.3,-3.9 h -7.7 z m 4.9,-3.3 c -0.9,-0.7 -1.9,-1.3 -2.9,-2 -0.6,-0.4 -1.1,-0.8 -1.4,-1.5 -0.2,-0.4 -0.3,-0.8 -0.3,-1.2 0,-0.9 0.3,-3.6 0.3,-3.6 0,-0.1 0.1,-0.1 0.1,-0.2 L 54.3,23.4 54,23 c -0.2,-0.2 -0.1,-0.2 -0.1,-0.4 -0.1,-0.7 -0.4,-1.2 -1.1,-1.3 -0.6,-0.1 -1.1,0.2 -1.5,0.7 -0.5,0.6 -1.1,0.7 -1.6,0.7 -0.4,0 -0.7,-0.1 -1,-0.2 -0.4,-0.2 -0.7,-0.4 -1,-0.8 l -0.9,-1 V 32.2 Z M 43.2,16.6 C 42.8,16.2 42.3,15.8 41.7,15.4 40.3,14.5 39,14.1 37.4,15 c -2.9,1.6 -6.8,3.1 -9.9,4 -0.6,0.2 -1.2,0.3 -1.9,0.4 -0.6,0.1 -0.4,0.5 -0.1,0.8 1.6,1.6 8.4,2.4 10.5,1 0.2,-0.2 0.5,-0.2 0.6,0.1 0.6,1.4 2.5,1.9 3.9,1.7 0.1,0 0.2,0.1 0.2,0.2 0.1,1.4 1,3.4 2.3,4.4 v -11 z M 50,35.5 h -3.2 v 1.7 c 1.1,-0.3 2.3,-0.8 3.2,-1.7 z m -6.8,9.8 v -9.8 h -10 c 3.1,2.7 2,4.7 5.8,6 1.5,0.5 1.5,0.2 2.5,1.5 0.5,0.8 1.1,1.6 1.7,2.3 z"
         class="st4"
         inkscape:connector-curvature="0"
         style="clip-rule:evenodd;fill:#ffffff;fill-rule:evenodd" />
      <path
         id="path891"
         d="M 53.5,28.3 C 54.2,28.2 55,28 55.7,27.7 l -1,-1.8 c -0.4,0.2 -0.8,0.3 -1.2,0.4 -0.1,0.6 -0.2,1.4 0,2 z m 0,-2.4 c 0.3,-0.1 0.7,-0.2 1,-0.3 l -0.8,-1.4 c -0.1,0.4 -0.1,1.1 -0.2,1.7 z m 0.4,-2 0.9,1.5 c 1,-0.6 1.7,-1.6 1.8,-2.8 h -2.3 v 0 l 0.5,0.6 c 0.1,0.1 0.1,0.2 -0.1,0.3 z m 0.3,-1.6 h 2.3 c -0.1,-1.2 -0.8,-2.2 -1.8,-2.8 l -1,1.8 c 0.3,0.3 0.4,0.6 0.5,1 z m -0.7,-1.2 1,-1.7 c -1,-0.5 -2.2,-0.5 -3.2,0 l 0.9,1.5 c 0.2,0 0.4,-0.1 0.6,0 0.3,0 0.5,0.1 0.7,0.2 z M 51.8,21 51,19.5 c -1,0.6 -1.7,1.5 -1.7,2.7 v 0 c 0.7,0.1 1.3,-0.1 1.7,-0.6 0.2,-0.3 0.5,-0.5 0.8,-0.6 z m -2.9,1.1 c 0,-0.1 0,-0.2 0,-0.3 0.2,-1.1 0.9,-2.1 1.9,-2.6 l -1,-1.8 c -0.9,0.5 -1.6,1.2 -2.1,2 -0.2,0.2 -0.4,0.7 -0.5,1.1 0.3,0.5 1,1.4 1.7,1.6 z m 1.2,-4.8 1,1.8 c 1.1,-0.5 2.4,-0.5 3.5,0 l 1,-1.8 c -1.7,-0.8 -3.8,-0.8 -5.5,0 z m 4.9,8.5 1,1.8 c 1.8,-1 3,-2.8 3.1,-4.9 h -2.2 c 0,1.3 -0.8,2.4 -1.9,3.1 z m 1,-8.3 -1,1.8 c 1.1,0.7 1.9,1.8 1.9,3.1 h 2.2 C 59,20.3 57.8,18.4 56,17.5 Z"
         class="st5"
         inkscape:connector-curvature="0"
         style="fill:#b7cfdb" />
      <path
         id="path893"
         d="m 88.9,31.6 v 4 H 86.4 V 24.8 h 3.5 c 0.8,0 1.4,0.1 2,0.2 0.5,0.2 1,0.4 1.3,0.7 0.3,0.3 0.6,0.6 0.8,1 0.2,0.4 0.2,0.8 0.2,1.3 0,0.3 0,0.7 -0.1,1 -0.1,0.3 -0.2,0.6 -0.4,0.9 -0.2,0.3 -0.4,0.5 -0.7,0.7 -0.3,0.2 -0.6,0.4 -0.9,0.5 0.2,0.1 0.3,0.2 0.5,0.3 0.1,0.1 0.3,0.3 0.4,0.4 l 2.3,3.7 H 93 c -0.4,0 -0.7,-0.2 -0.9,-0.5 L 90.2,32 C 90.1,31.9 90,31.8 89.9,31.7 89.8,31.6 89.6,31.6 89.5,31.6 Z m 158.4,1.2 c 0.1,0 0.1,0 0.2,0 0.1,0 0.1,0.1 0.2,0.1 l 1,1 c -0.4,0.6 -1,1 -1.6,1.3 -0.7,0.3 -1.4,0.4 -2.3,0.4 -0.8,0 -1.5,-0.1 -2.2,-0.4 -0.6,-0.3 -1.2,-0.7 -1.6,-1.2 -0.4,-0.5 -0.8,-1.1 -1,-1.7 -0.2,-0.7 -0.4,-1.4 -0.4,-2.2 0,-0.8 0.1,-1.5 0.4,-2.2 0.3,-0.7 0.7,-1.2 1.2,-1.7 0.5,-0.5 1.1,-0.9 1.8,-1.1 0.7,-0.3 1.4,-0.4 2.3,-0.4 0.4,0 0.8,0 1.1,0.1 0.4,0.1 0.7,0.2 1,0.3 0.3,0.1 0.6,0.3 0.9,0.4 0.3,0.2 0.5,0.4 0.7,0.6 l -0.8,1.1 c -0.1,0.1 -0.1,0.1 -0.2,0.2 -0.1,0.1 -0.2,0.1 -0.3,0.1 -0.1,0 -0.2,0 -0.3,-0.1 -0.1,0 -0.2,-0.1 -0.3,-0.1 -0.1,-0.1 -0.2,-0.1 -0.3,-0.2 -0.1,-0.1 -0.2,-0.1 -0.4,-0.2 -0.1,-0.1 -0.3,-0.1 -0.5,-0.1 -0.2,0 -0.4,-0.1 -0.7,-0.1 -0.5,0 -0.9,0.1 -1.2,0.2 -0.4,0.2 -0.7,0.4 -1,0.7 -0.3,0.3 -0.5,0.7 -0.6,1.1 -0.2,0.4 -0.2,0.9 -0.2,1.4 0,0.6 0.1,1 0.2,1.5 0.1,0.4 0.4,0.8 0.6,1.1 0.3,0.3 0.6,0.5 0.9,0.7 0.3,0.2 0.7,0.2 1.1,0.2 0.2,0 0.4,0 0.6,0 0.2,0 0.4,-0.1 0.5,-0.1 0.2,-0.1 0.3,-0.1 0.5,-0.2 0.1,-0.1 0.3,-0.2 0.4,-0.3 0.1,0 0.1,-0.1 0.2,-0.1 0,-0.1 0.1,-0.1 0.1,-0.1 z m 7.5,2.7 c -0.2,0 -0.4,0 -0.5,-0.1 -0.1,-0.1 -0.2,-0.2 -0.3,-0.4 l -0.2,-0.4 c -0.2,0.2 -0.4,0.3 -0.6,0.4 -0.2,0.1 -0.4,0.2 -0.5,0.3 -0.2,0.1 -0.4,0.1 -0.6,0.2 -0.2,0 -0.5,0.1 -0.7,0.1 -0.3,0 -0.7,0 -1,-0.1 -0.3,-0.1 -0.5,-0.2 -0.7,-0.4 -0.2,-0.2 -0.4,-0.4 -0.5,-0.7 -0.1,-0.3 -0.2,-0.6 -0.2,-0.9 0,-0.3 0.1,-0.5 0.2,-0.8 0.1,-0.3 0.4,-0.5 0.7,-0.8 0.3,-0.2 0.8,-0.4 1.4,-0.6 0.6,-0.2 1.3,-0.2 2.2,-0.3 v -0.3 c 0,-0.4 -0.1,-0.8 -0.3,-1 -0.2,-0.2 -0.4,-0.3 -0.8,-0.3 -0.3,0 -0.5,0 -0.7,0.1 -0.2,0.1 -0.3,0.1 -0.5,0.2 -0.1,0.1 -0.3,0.1 -0.4,0.2 -0.1,0.1 -0.3,0.1 -0.5,0.1 -0.2,0 -0.3,0 -0.4,-0.1 -0.1,-0.1 -0.2,-0.2 -0.3,-0.3 l -0.4,-0.7 c 0.5,-0.4 1,-0.7 1.5,-0.9 0.6,-0.2 1.2,-0.3 1.8,-0.3 0.5,0 0.9,0.1 1.3,0.2 0.4,0.1 0.7,0.4 0.9,0.6 0.3,0.3 0.5,0.6 0.6,1 0.1,0.4 0.2,0.8 0.2,1.2 v 4.8 z m -2.6,-1.3 c 0.3,0 0.6,-0.1 0.8,-0.2 0.2,-0.1 0.4,-0.3 0.7,-0.5 v -1.1 c -0.5,0 -0.8,0.1 -1.1,0.1 -0.3,0.1 -0.5,0.1 -0.7,0.2 -0.2,0.1 -0.3,0.2 -0.4,0.3 -0.1,0.1 -0.1,0.2 -0.1,0.4 0,0.3 0.1,0.4 0.2,0.5 0.1,0.2 0.3,0.3 0.6,0.3 z m 7.4,1.5 c -0.4,0 -0.7,-0.1 -1,-0.2 -0.3,-0.1 -0.5,-0.3 -0.7,-0.4 -0.2,-0.2 -0.3,-0.4 -0.4,-0.7 -0.1,-0.3 -0.1,-0.6 -0.1,-0.9 v -4 h -0.6 c -0.1,0 -0.2,0 -0.3,-0.1 -0.1,-0.1 -0.1,-0.2 -0.1,-0.3 v -0.9 l 1.2,-0.2 0.4,-2 c 0.1,-0.2 0.2,-0.4 0.5,-0.4 h 1.2 v 2.2 h 1.9 v 1.6 h -1.9 v 3.8 c 0,0.2 0,0.3 0.1,0.4 0.1,0.1 0.2,0.2 0.4,0.2 0.1,0 0.2,0 0.2,0 0.1,0 0.1,0 0.1,-0.1 0,0 0.1,0 0.1,-0.1 0,0 0.1,0 0.1,0 0.1,0 0.1,0 0.2,0 0,0 0.1,0.1 0.1,0.2 l 0.7,1.1 c -0.3,0.2 -0.6,0.4 -1,0.5 -0.3,0.2 -0.7,0.3 -1.1,0.3 z m 6.2,-7.9 c 0.6,0 1.1,0.1 1.6,0.3 0.5,0.2 0.9,0.4 1.2,0.8 0.3,0.3 0.6,0.7 0.8,1.2 0.2,0.5 0.3,1 0.3,1.6 0,0.6 -0.1,1.2 -0.3,1.6 -0.2,0.5 -0.5,0.9 -0.8,1.2 -0.3,0.3 -0.8,0.6 -1.2,0.8 -0.5,0.2 -1,0.3 -1.6,0.3 -0.6,0 -1.1,-0.1 -1.6,-0.3 -0.5,-0.2 -0.9,-0.4 -1.2,-0.8 -0.3,-0.3 -0.6,-0.8 -0.8,-1.2 -0.2,-0.5 -0.3,-1 -0.3,-1.6 0,-0.6 0.1,-1.1 0.3,-1.6 0.2,-0.5 0.5,-0.9 0.8,-1.2 0.3,-0.3 0.8,-0.6 1.2,-0.8 0.5,-0.2 1.1,-0.3 1.6,-0.3 z m 0,6.2 c 0.5,0 0.9,-0.2 1.2,-0.6 0.2,-0.4 0.4,-0.9 0.4,-1.7 0,-0.8 -0.1,-1.3 -0.4,-1.7 -0.2,-0.4 -0.6,-0.6 -1.2,-0.6 -0.5,0 -0.9,0.2 -1.2,0.6 -0.3,0.4 -0.4,0.9 -0.4,1.7 0,0.8 0.1,1.3 0.4,1.7 0.3,0.4 0.7,0.6 1.2,0.6 z m 3,-9.3 -1.9,1.9 c -0.1,0.1 -0.2,0.2 -0.3,0.2 -0.1,0 -0.2,0.1 -0.4,0.1 h -1.4 l 1,-1.8 c 0.1,-0.1 0.2,-0.3 0.3,-0.3 0.1,-0.1 0.3,-0.1 0.5,-0.1 z m 4.3,-0.2 v 11 h -2.3 v -11 z m 3.5,3.4 v 7.6 h -2.3 v -7.6 z m 0.2,-2.1 c 0,0.2 0,0.4 -0.1,0.5 -0.1,0.2 -0.2,0.3 -0.3,0.4 -0.1,0.1 -0.3,0.2 -0.4,0.3 -0.2,0.1 -0.4,0.1 -0.5,0.1 -0.2,0 -0.4,0 -0.5,-0.1 -0.2,-0.1 -0.3,-0.2 -0.4,-0.3 -0.1,-0.1 -0.2,-0.3 -0.3,-0.4 -0.1,-0.2 -0.1,-0.3 -0.1,-0.5 0,-0.2 0,-0.4 0.1,-0.5 0.1,-0.2 0.2,-0.3 0.3,-0.4 0.1,-0.1 0.3,-0.2 0.4,-0.3 0.2,-0.1 0.3,-0.1 0.5,-0.1 0.2,0 0.4,0 0.5,0.1 0.2,0.1 0.3,0.2 0.4,0.3 0.1,0.1 0.2,0.3 0.3,0.4 0.1,0.2 0.1,0.3 0.1,0.5 z m 6.8,3.9 c -0.1,0.1 -0.1,0.1 -0.2,0.2 -0.1,0 -0.2,0.1 -0.3,0.1 -0.1,0 -0.2,0 -0.3,-0.1 -0.1,-0.1 -0.2,-0.1 -0.3,-0.2 -0.1,-0.1 -0.2,-0.1 -0.4,-0.2 -0.2,-0.1 -0.3,-0.1 -0.6,-0.1 -0.3,0 -0.5,0.1 -0.7,0.2 -0.2,0.1 -0.4,0.3 -0.5,0.4 -0.1,0.2 -0.2,0.4 -0.3,0.7 -0.1,0.3 -0.1,0.6 -0.1,0.9 0,0.7 0.1,1.3 0.4,1.7 0.3,0.4 0.7,0.6 1.2,0.6 0.3,0 0.5,0 0.6,-0.1 0.2,-0.1 0.3,-0.1 0.4,-0.2 0.1,-0.1 0.2,-0.2 0.3,-0.2 0.1,-0.1 0.2,-0.1 0.3,-0.1 0.2,0 0.3,0.1 0.4,0.2 l 0.7,0.8 c -0.2,0.3 -0.5,0.5 -0.7,0.7 -0.3,0.2 -0.5,0.3 -0.8,0.4 -0.3,0.1 -0.5,0.2 -0.8,0.2 -0.3,0 -0.5,0.1 -0.8,0.1 -0.5,0 -0.9,-0.1 -1.3,-0.3 -0.4,-0.2 -0.8,-0.4 -1.1,-0.8 -0.3,-0.3 -0.6,-0.7 -0.8,-1.2 -0.2,-0.5 -0.3,-1.1 -0.3,-1.7 0,-0.6 0.1,-1.1 0.2,-1.5 0.2,-0.5 0.4,-0.9 0.7,-1.2 0.3,-0.4 0.7,-0.6 1.2,-0.8 0.5,-0.2 1,-0.3 1.6,-0.3 0.6,0 1.1,0.1 1.6,0.3 0.5,0.2 0.9,0.5 1.2,0.8 z m 6.8,5.8 c -0.2,0 -0.4,0 -0.5,-0.1 -0.1,-0.1 -0.2,-0.2 -0.3,-0.4 l -0.2,-0.4 c -0.2,0.2 -0.4,0.3 -0.6,0.4 -0.2,0.1 -0.4,0.2 -0.5,0.3 -0.1,0.1 -0.4,0.1 -0.6,0.2 -0.2,0.1 -0.5,0.1 -0.7,0.1 -0.3,0 -0.7,0 -1,-0.1 -0.3,-0.1 -0.5,-0.2 -0.7,-0.4 -0.2,-0.2 -0.4,-0.4 -0.5,-0.7 -0.1,-0.3 -0.2,-0.6 -0.2,-0.9 0,-0.3 0.1,-0.5 0.2,-0.8 0.1,-0.3 0.4,-0.5 0.7,-0.8 0.3,-0.2 0.8,-0.4 1.4,-0.6 0.6,-0.2 1.3,-0.2 2.2,-0.3 v -0.3 c 0,-0.4 -0.1,-0.8 -0.3,-1 -0.2,-0.2 -0.4,-0.3 -0.8,-0.3 -0.3,0 -0.5,0 -0.7,0.1 -0.2,0.1 -0.3,0.1 -0.5,0.2 -0.1,0.1 -0.3,0.1 -0.4,0.2 -0.1,0.1 -0.3,0.1 -0.5,0.1 -0.2,0 -0.3,0 -0.4,-0.1 -0.1,-0.1 -0.2,-0.2 -0.3,-0.3 l -0.4,-0.7 c 0.5,-0.4 1,-0.7 1.5,-0.9 0.6,-0.2 1.2,-0.3 1.8,-0.3 0.5,0 0.9,0.1 1.3,0.2 0.4,0.1 0.7,0.4 0.9,0.6 0.3,0.3 0.5,0.6 0.6,1 0.1,0.4 0.2,0.8 0.2,1.2 v 4.8 z m -2.7,-1.3 c 0.3,0 0.6,-0.1 0.8,-0.2 0.2,-0.1 0.4,-0.3 0.7,-0.5 v -1.1 c -0.5,0 -0.8,0.1 -1.1,0.1 -0.3,0.1 -0.5,0.1 -0.7,0.2 -0.2,0.1 -0.3,0.2 -0.4,0.3 -0.1,0.1 -0.1,0.2 -0.1,0.4 0,0.3 0.1,0.4 0.2,0.5 0.2,0.2 0.4,0.3 0.6,0.3 z M 167.9,33 c 0.1,0 0.1,0 0.2,0 0.1,0 0.1,0.1 0.2,0.1 l 1,1 c -0.4,0.6 -1,1 -1.6,1.3 -0.7,0.3 -1.4,0.4 -2.3,0.4 -0.8,0 -1.5,-0.1 -2.2,-0.4 -0.6,-0.3 -1.2,-0.7 -1.6,-1.2 -0.4,-0.5 -0.8,-1.1 -1,-1.7 -0.2,-0.7 -0.4,-1.4 -0.4,-2.2 0,-0.8 0.1,-1.5 0.4,-2.2 0.3,-0.7 0.7,-1.2 1.2,-1.7 0.5,-0.5 1.1,-0.9 1.8,-1.1 0.7,-0.3 1.4,-0.4 2.3,-0.4 0.4,0 0.8,0 1.1,0.1 0.4,0.1 0.7,0.2 1,0.3 0.3,0.1 0.6,0.3 0.9,0.4 0.3,0.2 0.5,0.4 0.7,0.6 l -0.8,1.1 c -0.1,0.1 -0.1,0.1 -0.2,0.2 -0.1,0.1 -0.2,0.1 -0.3,0.1 -0.1,0 -0.2,0 -0.3,-0.1 -0.1,0 -0.2,-0.1 -0.3,-0.1 -0.1,-0.1 -0.2,-0.1 -0.3,-0.2 -0.1,-0.1 -0.2,-0.1 -0.4,-0.2 -0.1,-0.1 -0.3,-0.1 -0.5,-0.1 -0.2,0 -0.4,-0.1 -0.7,-0.1 -0.5,0 -0.9,0.1 -1.2,0.2 -0.4,0.2 -0.7,0.4 -1,0.7 -0.3,0.3 -0.5,0.7 -0.6,1.1 -0.2,0.4 -0.2,0.9 -0.2,1.4 0,0.6 0.1,1 0.2,1.5 0.1,0.4 0.4,0.8 0.6,1.1 0.3,0.3 0.6,0.5 0.9,0.7 0.3,0.2 0.7,0.2 1.1,0.2 0.2,0 0.4,0 0.6,0 0.2,0 0.4,-0.1 0.5,-0.1 0.2,-0.1 0.3,-0.1 0.5,-0.2 0.1,-0.1 0.3,-0.2 0.4,-0.3 0.1,0 0.1,-0.1 0.2,-0.1 -0.1,-0.1 0,-0.1 0.1,-0.1 z m 65.9,2.5 c -0.2,0 -0.4,0 -0.5,-0.1 -0.1,-0.1 -0.2,-0.2 -0.3,-0.4 l -0.2,-0.4 c -0.2,0.2 -0.4,0.3 -0.6,0.4 -0.2,0.1 -0.4,0.2 -0.5,0.3 -0.2,0.1 -0.4,0.1 -0.6,0.2 -0.2,0 -0.5,0.1 -0.7,0.1 -0.3,0 -0.7,0 -1,-0.1 -0.3,-0.1 -0.5,-0.2 -0.7,-0.4 -0.2,-0.2 -0.4,-0.4 -0.5,-0.7 -0.1,-0.3 -0.2,-0.6 -0.2,-0.9 0,-0.3 0.1,-0.5 0.2,-0.8 0.1,-0.3 0.4,-0.5 0.7,-0.8 0.3,-0.2 0.8,-0.4 1.4,-0.6 0.6,-0.2 1.3,-0.2 2.2,-0.3 v -0.3 c 0,-0.4 -0.1,-0.8 -0.3,-1 -0.2,-0.2 -0.4,-0.3 -0.8,-0.3 -0.3,0 -0.5,0 -0.7,0.1 -0.2,0.1 -0.3,0.1 -0.5,0.2 -0.1,0.1 -0.3,0.1 -0.4,0.2 -0.1,0.1 -0.3,0.1 -0.5,0.1 -0.2,0 -0.3,0 -0.4,-0.1 -0.1,-0.1 -0.2,-0.2 -0.3,-0.3 l -0.4,-0.7 c 0.5,-0.4 1,-0.7 1.5,-0.9 0.6,-0.2 1.2,-0.3 1.8,-0.3 0.5,0 0.9,0.1 1.3,0.2 0.4,0.1 0.7,0.4 0.9,0.6 0.3,0.3 0.5,0.6 0.6,1 0.1,0.4 0.2,0.8 0.2,1.2 v 4.8 z m -2.6,-1.3 c 0.3,0 0.6,-0.1 0.8,-0.2 0.2,-0.1 0.4,-0.3 0.7,-0.5 v -1.1 c -0.5,0 -0.8,0.1 -1.1,0.1 -0.3,0.1 -0.5,0.1 -0.7,0.2 -0.2,0.1 -0.3,0.2 -0.4,0.3 -0.1,0.1 -0.1,0.2 -0.1,0.4 0,0.3 0.1,0.4 0.2,0.5 0.1,0.2 0.3,0.3 0.6,0.3 z m -4.1,-4.5 c -0.1,0.1 -0.1,0.1 -0.2,0.2 -0.1,0 -0.2,0.1 -0.3,0.1 -0.1,0 -0.2,0 -0.3,-0.1 -0.1,-0.1 -0.2,-0.1 -0.3,-0.2 -0.1,-0.1 -0.2,-0.1 -0.4,-0.2 -0.2,-0.1 -0.3,-0.1 -0.6,-0.1 -0.3,0 -0.5,0.1 -0.7,0.2 -0.2,0.1 -0.4,0.3 -0.5,0.4 -0.1,0.2 -0.2,0.4 -0.3,0.7 -0.1,0.3 -0.1,0.6 -0.1,0.9 0,0.7 0.1,1.3 0.4,1.7 0.3,0.4 0.7,0.6 1.2,0.6 0.3,0 0.5,0 0.6,-0.1 0.2,-0.1 0.3,-0.1 0.4,-0.2 0.1,-0.1 0.2,-0.2 0.3,-0.2 0.1,-0.1 0.2,-0.1 0.3,-0.1 0.2,0 0.3,0.1 0.4,0.2 l 0.7,0.8 c -0.2,0.3 -0.5,0.5 -0.7,0.7 -0.3,0.2 -0.5,0.3 -0.8,0.4 -0.3,0.1 -0.5,0.2 -0.8,0.2 -0.3,0 -0.5,0.1 -0.8,0.1 -0.5,0 -0.9,-0.1 -1.3,-0.3 -0.4,-0.2 -0.8,-0.4 -1.1,-0.8 -0.3,-0.3 -0.6,-0.7 -0.8,-1.2 -0.2,-0.5 -0.3,-1.1 -0.3,-1.7 0,-0.6 0.1,-1.1 0.2,-1.5 0.2,-0.5 0.4,-0.9 0.7,-1.2 0.3,-0.4 0.7,-0.6 1.2,-0.8 0.5,-0.2 1,-0.3 1.6,-0.3 0.6,0 1.1,0.1 1.6,0.3 0.5,0.2 0.9,0.5 1.2,0.8 z m -6.8,-1.8 v 7.6 H 218 v -7.6 z m 0.2,-2.1 c 0,0.2 0,0.4 -0.1,0.5 -0.1,0.2 -0.2,0.3 -0.3,0.4 -0.1,0.1 -0.3,0.2 -0.4,0.3 -0.2,0.1 -0.4,0.1 -0.5,0.1 -0.2,0 -0.4,0 -0.5,-0.1 -0.2,-0.1 -0.3,-0.2 -0.4,-0.3 -0.1,-0.1 -0.2,-0.3 -0.3,-0.4 -0.1,-0.2 -0.1,-0.3 -0.1,-0.5 0,-0.2 0,-0.4 0.1,-0.5 0.1,-0.2 0.2,-0.3 0.3,-0.4 0.1,-0.1 0.3,-0.2 0.4,-0.3 0.2,-0.1 0.3,-0.1 0.5,-0.1 0.2,0 0.4,0 0.5,0.1 0.2,0.1 0.3,0.2 0.4,0.3 0.1,0.1 0.2,0.3 0.3,0.4 0.1,0.2 0.1,0.3 0.1,0.5 z m -5.4,9.9 c -0.4,0 -0.7,-0.1 -1,-0.2 -0.3,-0.1 -0.5,-0.3 -0.7,-0.4 -0.2,-0.2 -0.3,-0.4 -0.4,-0.7 -0.1,-0.3 -0.1,-0.6 -0.1,-0.9 v -4 h -0.6 c -0.1,0 -0.2,0 -0.3,-0.1 -0.1,-0.1 -0.1,-0.2 -0.1,-0.3 v -0.9 l 1.2,-0.2 0.4,-1.9 c 0.1,-0.2 0.2,-0.4 0.5,-0.4 h 1.2 v 2.2 h 1.9 v 1.6 h -1.9 v 3.8 c 0,0.2 0,0.3 0.1,0.4 0.1,0.1 0.2,0.2 0.4,0.2 0.1,0 0.2,0 0.2,0 0.1,0 0.1,0 0.1,-0.1 0,0 0.1,0 0.1,-0.1 0,0 0.1,0 0.1,0 0.1,0 0.1,0 0.2,0 0,0 0.1,0.1 0.1,0.2 l 0.7,1.1 c -0.3,0.2 -0.6,0.4 -1,0.5 -0.4,0.1 -0.8,0.2 -1.1,0.2 z m -4.6,-0.2 c -0.2,0 -0.4,0 -0.5,-0.1 -0.1,-0.1 -0.2,-0.2 -0.3,-0.4 l -0.2,-0.4 c -0.2,0.2 -0.4,0.3 -0.6,0.4 -0.2,0.1 -0.4,0.2 -0.5,0.3 -0.2,0.1 -0.4,0.1 -0.6,0.2 -0.2,0 -0.5,0.1 -0.7,0.1 -0.3,0 -0.7,0 -1,-0.1 -0.3,-0.1 -0.5,-0.2 -0.7,-0.4 -0.2,-0.2 -0.4,-0.4 -0.5,-0.7 -0.1,-0.3 -0.2,-0.6 -0.2,-0.9 0,-0.3 0.1,-0.5 0.2,-0.8 0.1,-0.3 0.4,-0.5 0.7,-0.8 0.3,-0.2 0.8,-0.4 1.4,-0.6 0.6,-0.2 1.3,-0.2 2.2,-0.3 v -0.3 c 0,-0.4 -0.1,-0.8 -0.3,-1 -0.2,-0.2 -0.4,-0.3 -0.8,-0.3 -0.3,0 -0.5,0 -0.7,0.1 -0.2,0.1 -0.3,0.1 -0.5,0.2 -0.1,0.1 -0.3,0.1 -0.4,0.2 -0.1,0.1 -0.3,0.1 -0.5,0.1 -0.2,0 -0.3,0 -0.4,-0.1 -0.1,-0.1 -0.2,-0.2 -0.3,-0.3 l -0.4,-0.7 c 0.5,-0.4 1,-0.7 1.5,-0.9 0.6,-0.2 1.2,-0.3 1.8,-0.3 0.5,0 0.9,0.1 1.3,0.2 0.4,0.1 0.7,0.4 0.9,0.6 0.3,0.3 0.5,0.6 0.6,1 0.1,0.4 0.2,0.8 0.2,1.2 v 4.8 z m -2.7,-1.3 c 0.3,0 0.6,-0.1 0.8,-0.2 0.2,-0.1 0.4,-0.3 0.7,-0.5 v -1.1 c -0.5,0 -0.8,0.1 -1.1,0.1 -0.3,0.1 -0.5,0.1 -0.7,0.2 -0.2,0.1 -0.3,0.2 -0.4,0.3 -0.1,0.1 -0.1,0.2 -0.1,0.4 0,0.3 0.1,0.4 0.2,0.5 0.2,0.2 0.4,0.3 0.6,0.3 z m 3.6,-9.5 -1.9,1.9 c -0.1,0.1 -0.2,0.2 -0.3,0.2 -0.1,0 -0.2,0.1 -0.4,0.1 h -1.4 l 1,-1.8 c 0.1,-0.1 0.2,-0.3 0.3,-0.3 0.1,-0.1 0.3,-0.1 0.5,-0.1 z m -18.5,10.8 v -7.6 h 1.4 c 0.1,0 0.3,0 0.4,0.1 0.1,0.1 0.2,0.2 0.2,0.3 l 0.1,0.4 c 0.1,-0.1 0.3,-0.3 0.4,-0.4 0.1,-0.1 0.3,-0.2 0.4,-0.3 0.2,-0.1 0.3,-0.1 0.5,-0.2 0.2,0 0.4,-0.1 0.6,-0.1 0.5,0 0.8,0.1 1.1,0.4 0.3,0.2 0.5,0.6 0.7,1 0.1,-0.2 0.3,-0.4 0.5,-0.6 0.2,-0.2 0.4,-0.3 0.6,-0.4 0.2,-0.1 0.4,-0.2 0.7,-0.2 0.2,0 0.5,-0.1 0.7,-0.1 0.4,0 0.8,0.1 1.2,0.2 0.3,0.1 0.6,0.3 0.9,0.6 0.2,0.2 0.4,0.6 0.5,0.9 0.1,0.4 0.2,0.8 0.2,1.2 v 4.9 h -2.3 v -4.9 c 0,-0.8 -0.3,-1.2 -1,-1.2 -0.3,0 -0.6,0.1 -0.8,0.3 -0.2,0.2 -0.3,0.5 -0.3,0.9 v 4.9 h -2.3 v -4.9 c 0,-0.4 -0.1,-0.7 -0.3,-0.9 -0.2,-0.2 -0.4,-0.3 -0.8,-0.3 -0.2,0 -0.4,0 -0.6,0.1 -0.2,0.1 -0.4,0.2 -0.5,0.4 v 5.5 z m -1.3,-5.9 c -0.1,0.1 -0.1,0.2 -0.2,0.2 -0.1,0 -0.2,0.1 -0.3,0.1 -0.1,0 -0.2,0 -0.3,-0.1 -0.1,0 -0.2,-0.1 -0.3,-0.1 -0.1,-0.1 -0.3,-0.1 -0.4,-0.2 -0.2,0 -0.3,-0.1 -0.5,-0.1 -0.3,0 -0.5,0.1 -0.7,0.2 -0.2,0.1 -0.2,0.3 -0.2,0.5 0,0.1 0.1,0.3 0.2,0.4 0.1,0.1 0.2,0.2 0.4,0.2 0.2,0.1 0.4,0.1 0.6,0.2 0.2,0.1 0.4,0.1 0.6,0.2 0.2,0.1 0.4,0.2 0.6,0.3 0.2,0.1 0.4,0.2 0.6,0.4 0.2,0.2 0.3,0.3 0.4,0.6 0.1,0.2 0.1,0.5 0.1,0.8 0,0.4 -0.1,0.7 -0.2,1 -0.1,0.3 -0.3,0.6 -0.6,0.8 -0.3,0.2 -0.6,0.4 -1,0.5 -0.4,0.1 -0.9,0.2 -1.4,0.2 -0.3,0 -0.5,0 -0.8,-0.1 -0.3,0 -0.5,-0.1 -0.8,-0.2 -0.2,-0.1 -0.5,-0.2 -0.7,-0.3 -0.2,-0.1 -0.4,-0.2 -0.5,-0.4 l 0.5,-0.8 c 0.1,-0.1 0.1,-0.2 0.2,-0.2 0.1,-0.1 0.2,-0.1 0.3,-0.1 0.1,0 0.3,0 0.4,0.1 0.1,0.1 0.2,0.1 0.3,0.2 0.1,0.1 0.3,0.1 0.4,0.2 0.2,0.1 0.4,0.1 0.6,0.1 0.2,0 0.3,0 0.4,-0.1 0.1,0 0.2,-0.1 0.3,-0.1 0.1,-0.1 0.1,-0.1 0.2,-0.2 0,-0.1 0.1,-0.2 0.1,-0.2 0,-0.2 -0.1,-0.3 -0.2,-0.4 -0.1,-0.1 -0.2,-0.2 -0.4,-0.3 -0.2,-0.1 -0.4,-0.1 -0.6,-0.2 -0.2,-0.1 -0.4,-0.1 -0.7,-0.2 -0.2,-0.1 -0.4,-0.2 -0.7,-0.3 -0.2,-0.1 -0.4,-0.3 -0.6,-0.4 -0.2,-0.2 -0.3,-0.4 -0.4,-0.6 -0.1,-0.2 -0.2,-0.5 -0.2,-0.9 0,-0.3 0.1,-0.6 0.2,-0.9 0.1,-0.3 0.3,-0.5 0.6,-0.8 0.3,-0.2 0.6,-0.4 0.9,-0.5 0.4,-0.1 0.8,-0.2 1.3,-0.2 0.3,0 0.5,0 0.8,0.1 0.3,0 0.5,0.1 0.7,0.2 0.2,0.1 0.4,0.2 0.6,0.3 0.2,0.1 0.4,0.3 0.5,0.4 z m -6.1,-1.7 v 7.6 h -2.3 v -7.6 z m 0.3,-2.1 c 0,0.2 0,0.4 -0.1,0.5 -0.1,0.2 -0.2,0.3 -0.3,0.4 -0.1,0.1 -0.3,0.2 -0.4,0.3 -0.2,0.1 -0.4,0.1 -0.5,0.1 -0.2,0 -0.4,0 -0.5,-0.1 -0.2,-0.1 -0.3,-0.2 -0.4,-0.3 -0.1,-0.1 -0.2,-0.3 -0.3,-0.4 -0.1,-0.2 -0.1,-0.3 -0.1,-0.5 0,-0.2 0,-0.4 0.1,-0.5 0.1,-0.2 0.2,-0.3 0.3,-0.4 0.1,-0.1 0.3,-0.2 0.4,-0.3 0.2,-0.1 0.3,-0.1 0.5,-0.1 0.2,0 0.4,0 0.5,0.1 0.2,0.1 0.3,0.2 0.4,0.3 0.1,0.1 0.2,0.3 0.3,0.4 0,0.2 0.1,0.3 0.1,0.5 z m -8.2,9.7 v -7.6 h 1.4 c 0.1,0 0.2,0 0.3,0 0.1,0 0.1,0 0.2,0.1 0.1,0 0.1,0.1 0.1,0.2 0,0.1 0,0.2 0.1,0.3 l 0.1,0.7 c 0.3,-0.4 0.6,-0.8 0.9,-1 0.3,-0.3 0.7,-0.4 1.1,-0.4 0.3,0 0.6,0.1 0.8,0.3 l -0.3,1.7 c 0,0.1 -0.1,0.2 -0.1,0.2 -0.1,0 -0.1,0.1 -0.2,0.1 -0.1,0 -0.2,0 -0.3,0 -0.1,0 -0.3,0 -0.4,0 -0.6,0 -1.1,0.3 -1.4,1 v 4.7 h -2.3 z m -2.3,0 c -0.2,0 -0.4,0 -0.5,-0.1 -0.1,-0.1 -0.2,-0.2 -0.3,-0.4 l -0.2,-0.4 c -0.2,0.2 -0.4,0.3 -0.6,0.4 -0.2,0.1 -0.4,0.2 -0.5,0.3 -0.2,0.1 -0.4,0.1 -0.6,0.2 -0.2,0 -0.5,0.1 -0.7,0.1 -0.3,0 -0.7,0 -1,-0.1 -0.3,-0.1 -0.5,-0.2 -0.7,-0.4 -0.2,-0.2 -0.4,-0.4 -0.5,-0.7 -0.1,-0.3 -0.2,-0.6 -0.2,-0.9 0,-0.3 0.1,-0.5 0.2,-0.8 0.1,-0.3 0.4,-0.5 0.7,-0.8 0.3,-0.2 0.8,-0.4 1.4,-0.6 0.6,-0.2 1.3,-0.2 2.2,-0.3 v -0.3 c 0,-0.4 -0.1,-0.8 -0.3,-1 -0.2,-0.2 -0.4,-0.3 -0.8,-0.3 -0.3,0 -0.5,0 -0.7,0.1 -0.2,0.1 -0.3,0.1 -0.5,0.2 -0.1,0.1 -0.3,0.1 -0.4,0.2 -0.1,0.1 -0.3,0.1 -0.5,0.1 -0.2,0 -0.3,0 -0.4,-0.1 -0.1,-0.1 -0.2,-0.2 -0.3,-0.3 L 170,29 c 0.5,-0.4 1,-0.7 1.5,-0.9 0.6,-0.2 1.2,-0.3 1.8,-0.3 0.5,0 0.9,0.1 1.3,0.2 0.4,0.1 0.7,0.4 0.9,0.6 0.3,0.3 0.5,0.6 0.6,1 0.1,0.4 0.2,0.8 0.2,1.2 v 4.8 h -1 z m -2.6,-1.3 c 0.3,0 0.6,-0.1 0.8,-0.2 0.2,-0.1 0.4,-0.3 0.7,-0.5 v -1.1 c -0.5,0 -0.8,0.1 -1.1,0.1 -0.3,0.1 -0.5,0.1 -0.7,0.2 -0.2,0.1 -0.3,0.2 -0.4,0.3 -0.1,0.1 -0.1,0.2 -0.1,0.4 0,0.3 0.1,0.4 0.2,0.5 0.1,0.2 0.3,0.3 0.6,0.3 z M 152,27.8 c 0.6,0 1.1,0.1 1.6,0.3 0.5,0.2 0.9,0.4 1.2,0.8 0.3,0.3 0.6,0.7 0.8,1.2 0.2,0.5 0.3,1 0.3,1.6 0,0.6 -0.1,1.2 -0.3,1.6 -0.2,0.5 -0.5,0.9 -0.8,1.2 -0.3,0.3 -0.8,0.6 -1.2,0.8 -0.5,0.2 -1,0.3 -1.6,0.3 -0.6,0 -1.1,-0.1 -1.6,-0.3 -0.5,-0.2 -0.9,-0.4 -1.2,-0.8 -0.3,-0.3 -0.6,-0.8 -0.8,-1.2 -0.2,-0.5 -0.3,-1 -0.3,-1.6 0,-0.6 0.1,-1.1 0.3,-1.6 0.2,-0.5 0.5,-0.9 0.8,-1.2 0.3,-0.3 0.8,-0.6 1.2,-0.8 0.5,-0.2 1,-0.3 1.6,-0.3 z m 0,6.2 c 0.5,0 0.9,-0.2 1.2,-0.6 0.2,-0.4 0.4,-0.9 0.4,-1.7 0,-0.8 -0.1,-1.3 -0.4,-1.7 -0.2,-0.4 -0.6,-0.6 -1.2,-0.6 -0.5,0 -0.9,0.2 -1.2,0.6 -0.3,0.4 -0.4,0.9 -0.4,1.7 0,0.8 0.1,1.3 0.4,1.7 0.3,0.4 0.7,0.6 1.2,0.6 z m -5.8,1.5 c -0.2,0 -0.4,0 -0.5,-0.1 -0.1,-0.1 -0.2,-0.2 -0.3,-0.4 l -0.2,-0.4 c -0.2,0.2 -0.4,0.3 -0.6,0.4 -0.2,0.1 -0.4,0.2 -0.5,0.3 -0.2,0.1 -0.4,0.1 -0.6,0.2 -0.2,0 -0.5,0.1 -0.7,0.1 -0.3,0 -0.7,0 -1,-0.1 -0.3,-0.1 -0.5,-0.2 -0.7,-0.4 -0.2,-0.2 -0.4,-0.4 -0.5,-0.7 -0.1,-0.3 -0.2,-0.6 -0.2,-0.9 0,-0.3 0.1,-0.5 0.2,-0.8 0.1,-0.3 0.4,-0.5 0.7,-0.8 0.3,-0.2 0.8,-0.4 1.4,-0.6 0.6,-0.2 1.3,-0.2 2.2,-0.3 v -0.3 c 0,-0.4 -0.1,-0.8 -0.3,-1 -0.2,-0.2 -0.4,-0.3 -0.8,-0.3 -0.3,0 -0.5,0 -0.7,0.1 -0.2,0.1 -0.3,0.1 -0.5,0.2 -0.1,0.1 -0.3,0.1 -0.4,0.2 -0.1,0.1 -0.3,0.1 -0.5,0.1 -0.2,0 -0.3,0 -0.4,-0.1 -0.1,-0.1 -0.2,-0.2 -0.3,-0.3 l -0.4,-0.7 c 0.5,-0.4 1,-0.7 1.5,-0.9 0.6,-0.2 1.2,-0.3 1.8,-0.3 0.5,0 0.9,0.1 1.3,0.2 0.4,0.1 0.7,0.4 0.9,0.6 0.3,0.3 0.5,0.6 0.6,1 0.1,0.4 0.2,0.8 0.2,1.2 v 4.8 z m -2.6,-1.3 c 0.3,0 0.6,-0.1 0.8,-0.2 0.2,-0.1 0.4,-0.3 0.7,-0.5 v -1.1 c -0.5,0 -0.8,0.1 -1.1,0.1 -0.3,0.1 -0.5,0.1 -0.7,0.2 -0.2,0.1 -0.3,0.2 -0.4,0.3 -0.1,0.1 -0.1,0.2 -0.1,0.4 0,0.3 0.1,0.4 0.2,0.5 0.1,0.2 0.3,0.3 0.6,0.3 z m 1.4,-8.9 c 0.1,0 0.2,0 0.3,-0.1 0.1,-0.1 0.1,-0.2 0.1,-0.4 h 1.4 c 0,0.3 0,0.6 -0.1,0.8 -0.1,0.2 -0.2,0.5 -0.4,0.6 -0.2,0.2 -0.3,0.3 -0.5,0.4 -0.2,0.1 -0.4,0.1 -0.7,0.1 -0.2,0 -0.4,0 -0.5,-0.1 -0.2,-0.1 -0.3,-0.1 -0.4,-0.2 -0.1,-0.1 -0.3,-0.1 -0.4,-0.2 -0.1,-0.1 -0.2,-0.1 -0.3,-0.1 -0.1,0 -0.2,0 -0.3,0.1 -0.1,0.1 -0.1,0.2 -0.1,0.4 h -1.4 c 0,-0.3 0,-0.6 0.1,-0.8 0.1,-0.2 0.2,-0.5 0.4,-0.6 0.2,-0.2 0.3,-0.3 0.5,-0.4 0.2,-0.1 0.4,-0.1 0.7,-0.1 0.2,0 0.4,0 0.5,0.1 0.2,0.1 0.3,0.1 0.4,0.2 0.1,0.1 0.3,0.1 0.4,0.2 0.1,0.1 0.2,0.1 0.3,0.1 z m -8.9,11.8 c 0.1,0 0.1,0 0.2,0 0.1,0 0.2,0 0.3,0 0.1,0 0.2,0 0.3,-0.1 0.1,0 0.1,-0.1 0.1,-0.1 0,-0.1 -0.1,-0.2 -0.2,-0.2 -0.1,-0.1 -0.4,-0.1 -0.8,-0.2 l 0.3,-1 c -0.4,-0.1 -0.7,-0.2 -1.1,-0.4 -0.3,-0.2 -0.6,-0.5 -0.9,-0.8 -0.3,-0.3 -0.4,-0.7 -0.6,-1.2 -0.1,-0.4 -0.2,-0.9 -0.2,-1.5 0,-0.6 0.1,-1.1 0.2,-1.5 0.2,-0.5 0.4,-0.9 0.7,-1.2 0.3,-0.4 0.7,-0.6 1.2,-0.8 0.5,-0.2 1,-0.3 1.6,-0.3 0.6,0 1.1,0.1 1.6,0.3 0.5,0.2 0.9,0.5 1.2,0.8 l -0.6,0.8 c -0.1,0.1 -0.1,0.1 -0.2,0.2 -0.1,0 -0.2,0.1 -0.3,0.1 -0.1,0 -0.2,0 -0.3,-0.1 -0.1,-0.1 -0.2,-0.1 -0.3,-0.2 -0.1,-0.1 -0.2,-0.1 -0.4,-0.2 -0.2,-0.1 -0.3,-0.1 -0.6,-0.1 -0.3,0 -0.5,0.1 -0.7,0.2 -0.2,0.1 -0.4,0.3 -0.5,0.4 -0.1,0.2 -0.2,0.4 -0.3,0.7 -0.1,0.3 -0.1,0.6 -0.1,0.9 0,0.7 0.1,1.3 0.4,1.7 0.3,0.4 0.7,0.6 1.2,0.6 0.3,0 0.5,0 0.6,-0.1 0.2,-0.1 0.3,-0.1 0.4,-0.2 0.1,-0.1 0.2,-0.2 0.3,-0.2 0.1,-0.1 0.2,-0.1 0.3,-0.1 0.2,0 0.3,0.1 0.4,0.2 l 0.7,0.8 c -0.2,0.2 -0.4,0.4 -0.6,0.5 -0.2,0.1 -0.4,0.3 -0.6,0.4 -0.2,0.1 -0.4,0.2 -0.6,0.2 -0.2,0.1 -0.4,0.1 -0.6,0.1 l -0.1,0.2 c 0.2,0.1 0.4,0.1 0.6,0.2 0.1,0.1 0.3,0.2 0.4,0.3 0.1,0.1 0.1,0.2 0.2,0.3 0,0.1 0.1,0.2 0.1,0.3 0,0.2 0,0.3 -0.1,0.5 -0.1,0.1 -0.2,0.3 -0.4,0.4 -0.2,0.1 -0.4,0.2 -0.6,0.2 -0.2,0.1 -0.5,0.1 -0.8,0.1 -0.2,0 -0.4,0 -0.6,0 -0.2,0 -0.3,0 -0.5,-0.1 l 0.2,-0.7 c -0.1,0 -0.1,-0.1 0.1,-0.1 z m -4.5,-1.6 c -0.2,0 -0.4,0 -0.5,-0.1 -0.1,-0.1 -0.2,-0.2 -0.3,-0.4 l -0.2,-0.4 c -0.2,0.2 -0.4,0.3 -0.6,0.4 -0.2,0.1 -0.4,0.2 -0.5,0.3 -0.2,0.1 -0.4,0.1 -0.6,0.2 -0.2,0 -0.5,0.1 -0.7,0.1 -0.3,0 -0.7,0 -1,-0.1 -0.3,-0.1 -0.5,-0.2 -0.7,-0.4 -0.2,-0.2 -0.4,-0.4 -0.5,-0.7 -0.1,-0.3 -0.2,-0.6 -0.2,-0.9 0,-0.3 0.1,-0.5 0.2,-0.8 0.1,-0.3 0.4,-0.5 0.7,-0.8 0.3,-0.2 0.8,-0.4 1.4,-0.6 0.6,-0.2 1.3,-0.2 2.2,-0.3 v -0.3 c 0,-0.4 -0.1,-0.8 -0.3,-1 -0.2,-0.2 -0.4,-0.3 -0.8,-0.3 -0.3,0 -0.5,0 -0.7,0.1 -0.2,0.1 -0.3,0.1 -0.5,0.2 -0.1,0.1 -0.3,0.1 -0.4,0.2 -0.1,0.1 -0.3,0.1 -0.5,0.1 -0.2,0 -0.3,0 -0.4,-0.1 -0.1,-0.1 -0.2,-0.2 -0.3,-0.3 L 126,28.9 c 0.5,-0.4 1,-0.7 1.5,-0.9 0.6,-0.2 1.2,-0.3 1.8,-0.3 0.5,0 0.9,0.1 1.3,0.2 0.4,0.1 0.7,0.4 0.9,0.6 0.3,0.3 0.5,0.6 0.6,1 0.1,0.4 0.2,0.8 0.2,1.2 v 4.8 z m -2.7,-1.3 c 0.3,0 0.6,-0.1 0.8,-0.2 0.2,-0.1 0.4,-0.3 0.7,-0.5 v -1.1 c -0.5,0 -0.8,0.1 -1.1,0.1 -0.3,0.1 -0.5,0.1 -0.7,0.2 -0.2,0.1 -0.3,0.2 -0.4,0.3 -0.1,0.1 -0.1,0.2 -0.1,0.4 0,0.3 0.1,0.4 0.2,0.5 0.2,0.2 0.4,0.3 0.6,0.3 z m -5.7,1.3 h -2.1 l -3,-7.6 h 1.9 c 0.2,0 0.3,0 0.4,0.1 0.1,0.1 0.2,0.2 0.2,0.3 l 1.1,3.4 c 0.1,0.3 0.2,0.6 0.2,0.8 0.1,0.3 0.1,0.5 0.2,0.8 0.1,-0.3 0.1,-0.5 0.2,-0.8 0.1,-0.3 0.2,-0.5 0.3,-0.8 l 1.1,-3.4 c 0,-0.1 0.1,-0.2 0.2,-0.3 0.1,-0.1 0.2,-0.1 0.4,-0.1 h 1.8 z m -8.7,-7.7 c 0.6,0 1.1,0.1 1.6,0.3 0.5,0.2 0.9,0.4 1.2,0.8 0.3,0.3 0.6,0.7 0.8,1.2 0.2,0.5 0.3,1 0.3,1.6 0,0.6 -0.1,1.2 -0.3,1.6 -0.2,0.5 -0.5,0.9 -0.8,1.2 -0.3,0.3 -0.8,0.6 -1.2,0.8 -0.5,0.2 -1,0.3 -1.6,0.3 -0.6,0 -1.1,-0.1 -1.6,-0.3 -0.5,-0.2 -0.9,-0.4 -1.2,-0.8 -0.3,-0.3 -0.6,-0.8 -0.8,-1.2 -0.2,-0.5 -0.3,-1 -0.3,-1.6 0,-0.6 0.1,-1.1 0.3,-1.6 0.2,-0.5 0.5,-0.9 0.8,-1.2 0.3,-0.3 0.8,-0.6 1.2,-0.8 0.5,-0.2 1,-0.3 1.6,-0.3 z m 0,6.2 c 0.5,0 0.9,-0.2 1.2,-0.6 0.2,-0.4 0.4,-0.9 0.4,-1.7 0,-0.8 -0.1,-1.3 -0.4,-1.7 -0.2,-0.4 -0.6,-0.6 -1.2,-0.6 -0.5,0 -0.9,0.2 -1.2,0.6 -0.3,0.4 -0.4,0.9 -0.4,1.7 0,0.8 0.1,1.3 0.4,1.7 0.2,0.4 0.6,0.6 1.2,0.6 z m -11.6,1.5 v -7.6 h 1.4 c 0.1,0 0.3,0 0.4,0.1 0.1,0.1 0.2,0.2 0.2,0.3 l 0.1,0.4 c 0.1,-0.1 0.3,-0.3 0.5,-0.4 0.2,-0.1 0.3,-0.2 0.5,-0.3 0.2,-0.1 0.4,-0.1 0.6,-0.2 0.2,0 0.4,-0.1 0.7,-0.1 0.4,0 0.8,0.1 1.1,0.2 0.3,0.1 0.6,0.3 0.8,0.6 0.2,0.3 0.4,0.6 0.5,0.9 0.1,0.4 0.2,0.7 0.2,1.2 v 4.9 h -2.3 v -4.9 c 0,-0.4 -0.1,-0.7 -0.3,-0.9 -0.2,-0.2 -0.4,-0.3 -0.8,-0.3 -0.3,0 -0.5,0.1 -0.7,0.2 -0.2,0.1 -0.4,0.3 -0.6,0.4 v 5.4 h -2.3 z m -4.4,-7.7 c 0.5,0 1,0.1 1.4,0.2 0.4,0.2 0.8,0.4 1.1,0.7 0.3,0.3 0.5,0.7 0.7,1.1 0.2,0.4 0.3,0.9 0.3,1.5 0,0.2 0,0.3 0,0.4 0,0.1 0,0.2 -0.1,0.3 0,0.1 -0.1,0.1 -0.2,0.1 -0.1,0 -0.2,0 -0.3,0 H 97 c 0.1,0.6 0.3,1.1 0.6,1.4 0.3,0.3 0.7,0.4 1.2,0.4 0.3,0 0.5,0 0.7,-0.1 0.2,-0.1 0.4,-0.1 0.5,-0.2 0.1,-0.1 0.3,-0.1 0.4,-0.2 0.1,-0.1 0.3,-0.1 0.4,-0.1 0.2,0 0.3,0.1 0.4,0.2 l 0.7,0.8 c -0.2,0.3 -0.5,0.5 -0.8,0.7 -0.3,0.2 -0.6,0.3 -0.8,0.4 -0.3,0.1 -0.6,0.2 -0.9,0.2 -0.3,0 -0.6,0.1 -0.8,0.1 -0.5,0 -1,-0.1 -1.5,-0.3 -0.5,-0.2 -0.9,-0.4 -1.2,-0.8 -0.4,-0.3 -0.6,-0.8 -0.8,-1.3 -0.2,-0.5 -0.3,-1.1 -0.3,-1.8 0,-0.5 0.1,-1 0.3,-1.5 0.2,-0.5 0.4,-0.9 0.8,-1.2 0.3,-0.3 0.7,-0.6 1.2,-0.8 0.3,-0.1 0.8,-0.2 1.4,-0.2 z m 0.1,1.6 c -0.4,0 -0.8,0.1 -1,0.4 -0.2,0.2 -0.4,0.6 -0.5,1.1 h 2.9 c 0,-0.2 0,-0.4 -0.1,-0.5 0,-0.2 -0.1,-0.3 -0.2,-0.5 -0.1,-0.1 -0.2,-0.2 -0.4,-0.3 -0.3,-0.2 -0.5,-0.2 -0.7,-0.2 z m -9.7,0.5 h 1 c 0.3,0 0.6,0 0.9,-0.1 0.2,-0.1 0.4,-0.2 0.6,-0.4 0.2,-0.2 0.3,-0.3 0.3,-0.5 0.1,-0.2 0.1,-0.4 0.1,-0.7 0,-0.5 -0.2,-0.8 -0.5,-1.1 -0.3,-0.3 -0.8,-0.4 -1.4,-0.4 h -1 z"
         class="st6"
         inkscape:connector-curvature="0"
         style="fill:#007437" />
      <text
         id="text1453"
         y="45.886539"
         x="86.316666"
         style="font-style:normal;font-weight:normal;font-size:40px;line-height:1.25;font-family:sans-serif;letter-spacing:0px;word-spacing:0px;opacity:0.6;fill:#003380;fill-opacity:1;stroke:none"
         xml:space="preserve"><tspan
           style="font-size:10.66666698px;fill:#003380"
           y="45.886539"
           x="86.316666"
           id="tspan1451"
           sodipodi:role="line">Arquidiocese de Belo Horizonte</tspan></text>
    </g>
  </g>
  <style
     id="style879"
     type="text/css">
	.st0{fill-rule:evenodd;clip-rule:evenodd;fill:#FFCA05;}
	.st1{fill-rule:evenodd;clip-rule:evenodd;fill:#007236;}
	.st2{fill-rule:evenodd;clip-rule:evenodd;fill:#004159;}
	.st3{fill-rule:evenodd;clip-rule:evenodd;fill:#B7CFDB;}
	.st4{fill-rule:evenodd;clip-rule:evenodd;fill:#FFFFFF;}
	.st5{fill:#B7CFDB;}
	.st6{fill:#007437;}
	.st7{fill:#004159;}
</style>
</svg>
